<?xml version="1.0" encoding="utf-8"?>
<!-- Generator: Adobe Illustrator 25.0.0, SVG Export Plug-In . SVG Version: 6.00 Build 0)  -->
<svg version="1.1" id="Layer_1" xmlns="http://www.w3.org/2000/svg" xmlns:xlink="http://www.w3.org/1999/xlink" x="0px"
	y="0px" viewBox="0 0 736 776.3" style="enable-background:new 0 0 736 776.3;" xml:space="preserve">
	<style type="text/css">
		.st0 {
			fill: #068c06;
		}
	</style>
	<g>
		<path class="st0" d="M736,512.5H635.1v-23.1H736V480c0-27.5-22.3-49.7-49.7-49.7h-51.2V295.1c0-18.5-10.8-34.4-26.4-41.9
		c-6.1-2.9-12.9-4.6-20.1-4.6H538H192.9h-55.5c-5.3,0-10.4,0.9-15.1,2.6c-18.2,6.3-31.4,23.6-31.4,43.9v135.2H49.7
		C22.3,430.3,0,452.6,0,480v9.4h90.8v23.1H0v150.7c0,27.5,22.3,49.7,49.7,49.7h41.1v16.9c0,25.7,20.8,46.5,46.5,46.5h451.3
		c25.7,0,46.5-20.8,46.5-46.5v-16.9h51.2c27.5,0,49.7-22.3,49.7-49.7L736,512.5z M243.7,334.4c0-7.8,6.3-14.1,14.1-14.1h211.9
		c7.8,0,14.1,6.3,14.1,14.1v0c0,7.8-6.3,14.1-14.1,14.1h-9.7v21.1c0,6.8-5.5,12.3-12.3,12.3c-6.8,0-12.3-5.5-12.3-12.3v-21.1H257.7
		C250,348.5,243.7,342.2,243.7,334.4L243.7,334.4z M226.7,529.8c0-38.6,31.3-69.9,69.9-69.9h132.6c38.6,0,69.9,31.3,69.9,69.9v15.9
		c0,20.1-15.7,36.4-35.5,37.4H262.3c-19.8-1-35.5-17.4-35.5-37.4V529.8z M427.5,691.6H299.9c-25.7,0-46.5-20.8-46.5-46.5v-38.9H474
		v38.9C474,670.8,453.2,691.6,427.5,691.6z" />
		<path class="st0" d="M516.9,183.7c-0.3-2.2-0.5-4.3-0.5-6.4V29.9C419,13.4,296.7,19.2,214.5,26.5v151.6l0,0.4l-0.1,3
		C313.2,197.4,436.1,191.1,516.9,183.7z" />
		<path class="st0" d="M122.2,228.8c5-1.1,10.1-1.8,15.1-1.8h55.5v-49.7v-72V25.6c0-14.1-11.5-25.6-25.6-25.6H148
		c-14.1,0-25.6,11.5-25.6,25.6v11.1L33.2,19.7v171.7l89-11V228.8z" />
		<path class="st0" d="M608.7,230.1V175l84.1,15.9V19.2l-84.3,10.4v-4C608.5,11.5,597,0,582.9,0h-19.2C549.5,0,538,11.5,538,25.6
		v79.8v72V227h50.6C595.5,227,602.2,228,608.7,230.1z" />
	</g>
</svg>
