<?xml version="1.0" encoding="utf-8"?>
<!-- Generator: Adobe Illustrator 25.0.0, SVG Export Plug-In . SVG Version: 6.00 Build 0)  -->
<svg version="1.1" id="Layer_1" xmlns="http://www.w3.org/2000/svg" xmlns:xlink="http://www.w3.org/1999/xlink" x="0px"
	y="0px" viewBox="0 0 1324.8 1324.8" style="enable-background:new 0 0 1324.8 1324.8;" xml:space="preserve">
	<style type="text/css">
		.st0 {
			fill: #068c06;
		}
	</style>
	<g>
		<polygon class="st0"
			points="84.3,984.9 84.3,1022.5 181,1022.5 57.4,1225.6 244.9,1225.6 244.9,1188 124.5,1188 248.1,984.9 	" />
		<path class="st0" d="M318.9,1225.6h41.5l20.4-51.6h85.6l20.4,51.6h41.2L423.6,973.9L318.9,1225.6z M394.4,1140.3l29.2-73.3
		l29.2,73.3H394.4z" />
		<rect x="610.2" y="984.9" class="st0" width="37.6" height="240.7" />
		<polygon class="st0" points="897.6,1139.3 746.4,973.6 746.4,1225.6 784,1225.6 784,1070.9 935.5,1236.6 935.5,984.9 897.6,984.9
		" />
		<path class="st0" d="M1258,1058.2c-6.2-14.3-14.6-26.9-25.6-38.3c-11.4-11-24-19.5-38.3-25.6c-14.9-6.2-30.8-9.4-47-9.4
		c-16.2,0-32.1,3.2-46.7,9.4c-14.6,6.2-27.2,14.6-38.3,25.6c-11,11.4-19.8,24-26,38.3c-6.2,14.9-9.4,30.8-9.4,47
		c0,16.2,3.2,32.1,9.4,46.7c6.2,14.6,14.9,27.2,26,38.3c11,11,23.7,19.8,38.3,26c14.6,6.2,30.5,9.4,46.7,9.4c16.2,0,32.1-3.2,47-9.4
		c14.3-6.2,26.9-14.9,38.3-26c11-11,19.5-23.7,25.6-38.3c6.2-14.6,9.4-30.5,9.4-46.7C1267.4,1089,1264.1,1073.2,1258,1058.2z
		 M1205.4,1163.7c-15.6,15.6-36.3,24.3-58.4,24.3c-22.1,0-42.8-8.8-58.4-24.3c-15.6-15.6-24.3-36.3-24.3-58.4
		c0-22.1,8.8-42.8,24.3-58.4c15.6-15.6,36.3-24.3,58.4-24.3c22.1,0,42.8,8.8,58.4,24.3c15.6,15.6,24.3,36.3,24.3,58.4
		C1229.8,1127.3,1221,1148.1,1205.4,1163.7z" />
		<path class="st0" d="M1030.4,600.6H929.5v-23.1h100.9v-9.4c0-27.5-22.3-49.7-49.7-49.7h-51.2V383.3c0-18.5-10.8-34.4-26.4-41.9
		c-6.1-2.9-12.9-4.6-20.1-4.6h-50.6H487.2h-55.5c-5.3,0-10.4,0.9-15.1,2.6c-18.2,6.3-31.4,23.6-31.4,43.9v135.2h-41.1
		c-27.5,0-49.7,22.3-49.7,49.7v9.4h90.8v23.1h-90.8v150.7c0,27.5,22.3,49.7,49.7,49.7h41.1V818c0,25.7,20.8,46.5,46.5,46.5H883
		c25.7,0,46.5-20.8,46.5-46.5V801h51.2c27.5,0,49.7-22.3,49.7-49.7L1030.4,600.6z M538,422.5c0-7.8,6.3-14.1,14.1-14.1H764
		c7.8,0,14.1,6.3,14.1,14.1v0c0,7.8-6.3,14.1-14.1,14.1h-9.7v21.1c0,6.8-5.5,12.3-12.3,12.3c-6.8,0-12.3-5.5-12.3-12.3v-21.1H552.1
		C544.3,436.6,538,430.3,538,422.5L538,422.5z M521.1,617.9c0-38.6,31.3-69.9,69.9-69.9h132.6c38.6,0,69.9,31.3,69.9,69.9v15.9
		c0,20.1-15.7,36.4-35.5,37.4H556.6c-19.8-1-35.5-17.4-35.5-37.4V617.9z M721.9,779.7H594.3c-25.7,0-46.5-20.8-46.5-46.5v-38.9
		h220.6v38.9C768.4,758.9,747.5,779.7,721.9,779.7z" />
		<path class="st0" d="M811.3,271.8c-0.3-2.2-0.5-4.3-0.5-6.4V118.1c-97.4-16.5-219.8-10.7-301.9-3.4v151.6l0,0.4l-0.1,3
		C607.5,285.6,730.5,279.2,811.3,271.8z" />
		<path class="st0" d="M416.6,316.9c5-1.1,10.1-1.8,15.1-1.8h55.5v-49.7v-72v-79.8c0-14.1-11.5-25.6-25.6-25.6h-19.2
		c-14.1,0-25.6,11.5-25.6,25.6v11.1l-89.3-16.9v171.7l89-11V316.9z" />
		<path class="st0" d="M903.1,318.2v-55.1l84.1,15.9V107.4l-84.3,10.4v-4c0-14.1-11.5-25.6-25.6-25.6H858
		c-14.1,0-25.6,11.5-25.6,25.6v79.8v72v49.7H883C889.9,315.1,896.6,316.2,903.1,318.2z" />
	</g>
</svg>
