<?xml version="1.0" encoding="utf-8"?>
<!-- Generator: Adobe Illustrator 24.1.0, SVG Export Plug-In . SVG Version: 6.00 Build 0)  -->
<svg version="1.1" id="Layer_1" xmlns="http://www.w3.org/2000/svg" xmlns:xlink="http://www.w3.org/1999/xlink" x="0px" y="0px"
	 viewBox="0 0 250 250" style="enable-background:new 0 0 250 250;" xml:space="preserve">
<style type="text/css">
	.st0{fill:#61A823;}
	.st1{fill:#546E7A;}
	.st2{fill:#ABD7ED;}
	.st3{fill:#35454D;}
</style>
<g>
	<path class="st0" d="M214.4,192.5H35c-9.7,0-17.6-7.9-17.6-17.6l0,0c0-9.7,7.9-17.6,17.6-17.6h179.4c9.7,0,17.6,7.9,17.6,17.6l0,0
		C232,184.6,224.2,192.5,214.4,192.5z"/>
	<g>
		<polygon class="st1" points="164.5,85.8 113.3,167.5 215.6,167.5 		"/>
		<polygon class="st2" points="145.3,116.5 155.9,106.7 164.5,119.4 168.7,111.9 186.4,120.8 164.5,82.7 		"/>
		<polygon class="st3" points="113.3,167.5 184.7,167.5 139.8,125.3 		"/>
		<polygon class="st1" points="100,61.8 33.8,167.5 166.3,167.5 		"/>
		<polygon class="st2" points="79.4,94.8 97,83.2 129.9,109.5 100,57.7 		"/>
		<polygon class="st3" points="99.4,95.3 126.2,132.7 114.1,132.8 147.8,167.5 120,167.5 96,123.6 111.9,123.3 		"/>
	</g>
</g>
</svg>
