<?xml version="1.0" encoding="utf-8"?>
<!-- Generator: Adobe Illustrator 24.1.0, SVG Export Plug-In . SVG Version: 6.00 Build 0)  -->
<svg version="1.1" id="Layer_1" xmlns="http://www.w3.org/2000/svg" xmlns:xlink="http://www.w3.org/1999/xlink" x="0px" y="0px"
	 viewBox="0 0 250 250" style="enable-background:new 0 0 250 250;" xml:space="preserve">
<style type="text/css">
	.st0{fill:#6B3A00;}
	.st1{fill:#E07A00;}
	.st2{fill:#A15700;}
	.st3{fill:#472F13;}
</style>
<g>
	<rect x="68.5" y="23.8" class="st0" width="24.3" height="24.3"/>
	
		<rect x="157.2" y="23.8" transform="matrix(-1 -1.224647e-16 1.224647e-16 -1 338.79 71.9648)" class="st0" width="24.3" height="24.3"/>
	<g>
		<path class="st0" d="M148.6,50.3c-5.7-8.9-14.3-13.9-23.6-13.9c-9.3,0-17.9,5.1-23.6,13.9L96.3,47c6.9-10.7,17.3-16.8,28.7-16.8
			c11.4,0,21.9,6.1,28.7,16.8L148.6,50.3z"/>
	</g>
	<path class="st1" d="M187.4,208.7h-11.2v-80.7h11.2c7,0,12.7,5.7,12.7,12.7V196C200.1,203,194.4,208.7,187.4,208.7z"/>
	<path class="st1" d="M62.6,208.7h11.2v-80.7H62.6c-7,0-12.7,5.7-12.7,12.7V196C49.9,203,55.6,208.7,62.6,208.7z"/>
	<rect x="67.3" y="77" class="st2" width="115.3" height="123.8"/>
	<path class="st1" d="M164.9,103H85.1C68,103,54.2,89.2,54.2,72.2V44.1h141.6v28.1C195.8,89.2,182,103,164.9,103z"/>
	<g>
		<path class="st0" d="M169.9,198.9H164v-49.2c0-9.7-6.1-16.7-14.6-16.7h-48.8c-8.5,0-14.6,7-14.6,16.7v49.2h-5.9v-49.2
			c0-12.9,8.8-22.6,20.5-22.6h48.8c11.7,0,20.5,9.7,20.5,22.6V198.9z"/>
	</g>
	<path class="st0" d="M167.3,226.2H82.7c-8.5,0-15.3-6.9-15.3-15.3v-19.6h115.3v19.6C182.7,219.3,175.8,226.2,167.3,226.2z"/>
	<rect x="81" y="77" class="st3" width="11.8" height="37.9"/>
	
		<rect x="157.2" y="77" transform="matrix(-1 -1.224647e-16 1.224647e-16 -1 326.2924 191.8555)" class="st3" width="11.8" height="37.9"/>
	<g>
		<rect x="83" y="166.8" class="st0" width="84" height="5.9"/>
	</g>
</g>
</svg>
