<?xml version="1.0" encoding="utf-8"?>
<!-- Generator: Adobe Illustrator 24.1.0, SVG Export Plug-In . SVG Version: 6.00 Build 0)  -->
<svg version="1.1" id="Layer_1" xmlns="http://www.w3.org/2000/svg" xmlns:xlink="http://www.w3.org/1999/xlink" x="0px" y="0px"
	 viewBox="0 0 250 250" style="enable-background:new 0 0 250 250;" xml:space="preserve">
<style type="text/css">
	.st0{fill:#8EAAB8;}
	.st1{fill:#C97F00;}
	.st2{fill:#FFA000;}
	.st3{fill:#A66700;}
</style>
<g>
	<path class="st0" d="M236,190.2c-1.2,0-2.4-0.7-2.9-1.9l-2.6-6.4c-26-63.3-73.4-114.8-105.7-114.8c-32.2,0-79.6,51.5-105.7,114.8
		l-2.6,6.4c-0.7,1.6-2.5,2.4-4.1,1.7c-1.6-0.7-2.4-2.5-1.7-4.1l2.6-6.4C40.8,113,89.7,60.8,124.8,60.8c35.1,0,84,52.1,111.4,118.7
		l2.6,6.4c0.7,1.6-0.1,3.4-1.7,4.1C236.8,190.1,236.4,190.2,236,190.2z"/>
	<path class="st1" d="M124.8,59.3c-22.1,0-49.5,20.2-73.9,51.5l5.6,4.7l29.8,25.2h76.8l29.7-25.3l5.6-4.8
		C174.3,79.4,146.9,59.3,124.8,59.3z"/>
	
		<rect x="33.5" y="132.8" transform="matrix(0.8493 0.528 -0.528 0.8493 79.6368 -2.9314)" class="st1" width="22.8" height="10.4"/>
	<rect x="21.3" y="154.5" transform="matrix(0.8856 0.4645 -0.4645 0.8856 78.0277 2.5665)" class="st1" width="25" height="10.4"/>
	
		<rect x="193.3" y="132.8" transform="matrix(-0.8493 0.528 -0.528 -0.8493 451.4659 147.0926)" class="st1" width="22.8" height="10.4"/>
	
		<rect x="203.4" y="154.5" transform="matrix(-0.8856 0.4645 -0.4645 -0.8856 481.2229 200.7784)" class="st1" width="25" height="10.4"/>
	<path class="st2" d="M124.8,75c-24.9,0-71.1,47.2-92.3,114.8h92.3h92.3C196,122.2,149.8,75,124.8,75z"/>
	<path class="st3" d="M124.8,119.5c-11.8,0-33.6,23.1-43.7,56.1h43.7h43.7C158.5,142.6,136.6,119.5,124.8,119.5z"/>
</g>
</svg>
